<svg
 xmlns="http://www.w3.org/2000/svg"
 xmlns:xlink="http://www.w3.org/1999/xlink"
 width="1024px" height="1024px">
<path fill="#667EEA"
 d="M874.000,1024.000 L150.000,1024.000 C67.157,1024.000 -0.000,956.843 -0.000,874.000 L-0.000,150.000 C-0.000,67.157 67.157,-0.000 150.000,-0.000 L874.000,-0.000 C956.843,-0.000 1024.000,67.157 1024.000,150.000 L1024.000,874.000 C1024.000,956.843 956.843,1024.000 874.000,1024.000 ZM264.329,750.737 L268.407,801.089 C270.064,821.548 286.922,836.697 306.062,834.926 L591.117,808.551 C610.257,806.781 624.429,788.760 622.773,768.301 L618.695,717.949 C617.039,697.491 600.180,682.341 581.040,684.112 L295.985,710.487 C276.845,712.258 262.673,730.279 264.329,750.737 ZM245.904,523.200 L249.981,573.552 C251.638,594.011 268.497,609.160 287.636,607.389 L654.500,573.445 C673.639,571.674 687.812,553.653 686.155,533.194 L682.078,482.843 C680.421,462.384 663.562,447.234 644.423,449.005 L277.560,482.950 C258.420,484.721 244.247,502.741 245.904,523.200 ZM776.645,292.713 L772.568,242.361 C770.911,221.902 754.052,206.753 734.913,208.524 L258.903,252.567 C239.764,254.338 225.591,272.359 227.248,292.818 L231.325,343.169 C232.982,363.628 249.841,378.777 268.980,377.006 L744.990,332.963 C764.129,331.192 778.302,313.172 776.645,292.713 Z"/>
</svg>
