<svg version="1.0" xmlns="http://www.w3.org/2000/svg" width="1365.333" height="1365.333" viewBox="0 0 1024 1024">
  <path d="M0 512v512h1024V0H0v512zm763.7-314.7c9.8 5.1 16.5 12.9 19.7 23.2 1 3 2.6 17.5 4.1 36 2.1 25.3 2.3 31.9 1.4 36.5-2.6 12.9-10.2 22.9-21.3 28.1l-6.4 3-253.3 23.5c-211.2 19.6-254.3 23.3-258.6 22.5-13.6-2.6-23.8-11.9-28.9-26.3-.7-2.2-2.5-18-3.9-35.1-2.9-34.4-2.7-38.4 2.2-48 5.2-10.4 15.9-18.7 25.8-20.3 2.2-.3 114.3-10.9 249-23.4 168.7-15.8 248.1-22.8 255-22.6 8.6.2 10.7.6 15.2 2.9zM662.5 446.5c11.7 3 21.1 11.7 25.5 23.4 1.6 4.2 2.6 11.9 4.5 34.5 3 35.3 3 36.7.5 44.9-3.6 11.7-13.7 22.1-24.4 25.2-2.9.8-87.7 9.1-200.1 19.5-173.3 16.1-195.6 18-200.5 17-11.7-2.5-20.7-9.9-26.2-21.6-2.8-6.1-3.1-7.9-5.5-35.1-3-35.4-2.8-42.5 1.4-51.5 5.2-11 16-19.8 26.5-21.4 3.9-.7 384.9-36.1 389.3-36.3 1.7-.1 5.8.6 9 1.4zM598.1 693c11.7 3.6 20.6 13 24.7 26 .7 1.9 2.3 17.4 3.7 34.4 2.8 34.5 2.7 37.7-2.5 48.3-4.7 9.4-15 17.7-24.5 19.7-1.6.3-71.4 6.9-155 14.6-150.3 14-152.1 14.1-158.5 12.5-12-2.9-21.5-11.4-26-23.5-3.1-7.9-7.9-66.7-6.2-74.9 3.3-15.6 15.8-28.5 29.9-30.7 5.7-.9 298.8-28.2 303.9-28.3 2.3-.1 7 .8 10.5 1.9z" fill="#6C5292" />
</svg>
