<svg 
 xmlns="http://www.w3.org/2000/svg"
 xmlns:xlink="http://www.w3.org/1999/xlink"
 width="1024px" height="1024px">
<path fill="#667EEA"
 d="M874.000,1024.000 L150.000,1024.000 C67.157,1024.000 -0.000,956.843 -0.000,874.000 L-0.000,150.000 C-0.000,67.157 67.157,-0.000 150.000,-0.000 L874.000,-0.000 C956.843,-0.000 1024.000,67.157 1024.000,150.000 L1024.000,874.000 C1024.000,956.843 956.843,1024.000 874.000,1024.000 ZM253.391,761.280 L257.657,813.949 C259.390,835.350 277.024,851.197 297.045,849.344 L595.222,821.755 C615.243,819.903 630.068,801.053 628.335,779.652 L624.070,726.983 C622.337,705.582 604.702,689.735 584.682,691.587 L286.504,719.177 C266.484,721.029 251.659,739.879 253.391,761.280 ZM234.118,523.269 L238.383,575.938 C240.116,597.338 257.751,613.185 277.771,611.333 L661.523,575.826 C681.543,573.974 696.369,555.123 694.636,533.723 L690.371,481.053 C688.638,459.653 671.003,443.806 650.982,445.658 L267.231,481.165 C247.210,483.018 232.385,501.868 234.118,523.269 ZM789.291,282.171 L785.026,229.501 C783.293,208.101 765.658,192.254 745.637,194.106 L247.716,240.177 C227.695,242.029 212.870,260.880 214.603,282.280 L218.868,334.950 C220.601,356.350 238.236,372.197 258.257,370.345 L756.178,324.274 C776.199,322.422 791.024,303.571 789.291,282.171 Z"/>
</svg>
